<svg xmlns="http://www.w3.org/2000/svg" viewBox="0 0 72 72" fill="none">
  <defs>
    <linearGradient id="neoignite-cyan" x1="8" y1="12" x2="38" y2="60" gradientUnits="userSpaceOnUse">
      <stop stop-color="#78EEFF"/>
      <stop offset="1" stop-color="#19D8F2"/>
    </linearGradient>
    <linearGradient id="neoignite-lime" x1="34" y1="14" x2="64" y2="58" gradientUnits="userSpaceOnUse">
      <stop stop-color="#D8FF73"/>
      <stop offset="1" stop-color="#B9F32E"/>
    </linearGradient>
  </defs>
  <path d="M15 43L30 31L33 41L21 54L15 50V43Z" stroke="url(#neoignite-cyan)" stroke-width="3.5" stroke-linecap="round" stroke-linejoin="round"/>
  <path d="M57 43L42 31L39 41L51 54L57 50V43Z" stroke="url(#neoignite-lime)" stroke-width="3.5" stroke-linecap="round" stroke-linejoin="round"/>
  <path d="M36 10L38.6 32L36 56L33.4 32L36 10Z" fill="url(#neoignite-cyan)"/>
  <path d="M23 22L31 34" stroke="url(#neoignite-cyan)" stroke-width="2.8" stroke-linecap="round"/>
  <path d="M49 22L41 34" stroke="url(#neoignite-lime)" stroke-width="2.8" stroke-linecap="round"/>
  <path d="M36 55L31 41L36 37L41 41L36 55Z" fill="url(#neoignite-cyan)"/>
  <circle cx="25" cy="45.5" r="2.8" stroke="url(#neoignite-cyan)" stroke-width="2.6"/>
  <circle cx="47" cy="45.5" r="2.8" stroke="url(#neoignite-lime)" stroke-width="2.6"/>
  <path d="M30.5 40.5H41.5" stroke="#F4FBFF" stroke-opacity="0.28" stroke-width="1.2" stroke-linecap="round"/>
</svg>